<?xml version="1.0" encoding="UTF-8" standalone="no"?>
<!-- Created with Inkscape (http://www.inkscape.org/) -->

<svg
   width="400mm"
   height="450mm"
   viewBox="0 0 400.00001 450.00001"
   version="1.1"
   id="svg5"
   inkscape:version="1.1 (ce6663b3b7, 2021-05-25)"
   sodipodi:docname="slant-design2.svg"
   xmlns:inkscape="http://www.inkscape.org/namespaces/inkscape"
   xmlns:sodipodi="http://sodipodi.sourceforge.net/DTD/sodipodi-0.dtd"
   xmlns="http://www.w3.org/2000/svg"
   xmlns:svg="http://www.w3.org/2000/svg">
  <sodipodi:namedview
     id="namedview7"
     pagecolor="#ffffff"
     bordercolor="#999999"
     borderopacity="1"
     inkscape:pageshadow="0"
     inkscape:pageopacity="0"
     inkscape:pagecheckerboard="0"
     inkscape:document-units="px"
     showgrid="false"
     showborder="true"
     inkscape:showpageshadow="true"
     inkscape:snap-global="false"
     inkscape:zoom="0.31064685"
     inkscape:cx="1559.6489"
     inkscape:cy="1685.1933"
     inkscape:window-width="1294"
     inkscape:window-height="704"
     inkscape:window-x="72"
     inkscape:window-y="27"
     inkscape:window-maximized="1"
     inkscape:current-layer="layer1"
     fit-margin-top="0"
     fit-margin-left="0"
     fit-margin-right="0"
     fit-margin-bottom="0"
     width="400mm" />
  <defs
     id="defs2" />
  <g
     inkscape:label="Layer 1"
     inkscape:groupmode="layer"
     id="layer1"
     transform="translate(8.3032483,-18.47628)">
    <path
       id="rect110"
       style="fill:#ff00ff;fill-opacity:1;fill-rule:evenodd;stroke-width:0.229082"
       d="m 25.519123,102.70375 a 12.405366,11.62247 54.759031 0 0 -6.633702,2.4598 l -0.0047,-0.005 -0.279053,0.24081 a 12.405366,11.62247 54.759031 0 0 -0.09818,0.0817 l 0.0016,0.002 -83.191304,71.81732 0.02066,0.0243 a 12.358695,14.262677 52.557124 0 0 -5.123717,12.29486 12.358695,14.262677 52.557124 0 0 8.126635,9.41648 12.358695,14.262677 52.557124 0 0 13.145968,-3.0055 l 0.02585,0.03 83.046092,-71.69227 0.006,0.007 a 12.405366,11.62247 54.759031 0 0 0.22685,-0.20722 l 0.28836,-0.24908 -0.007,-0.008 a 12.405366,11.62247 54.759031 0 0 3.1719,-10.91354 12.405366,11.62247 54.759031 0 0 -8.078056,-9.50433 12.405366,11.62247 54.759031 0 0 -4.643644,-0.78859 z" />
    <rect
       style="fill:#00f9ff;fill-opacity:1;fill-rule:evenodd;stroke-width:0.238868"
       id="rect192"
       width="26.946613"
       height="110.39845"
       x="142.78088"
       y="53.77721"
       transform="rotate(48.882662)" />
    <rect
       style="fill:#ffa100;fill-opacity:1;fill-rule:evenodd;stroke-width:0.187223"
       id="rect920"
       width="16.555504"
       height="110.38993"
       x="261.64343"
       y="168.74159"
       transform="matrix(0.65533413,0.75533912,-0.74619715,0.66572503,0,0)" />
    <rect
       style="fill:#ffa100;fill-opacity:1;fill-rule:evenodd;stroke-width:0.170327"
       id="rect922"
       width="13.702566"
       height="110.38776"
       x="377.98328"
       y="-221.68167"
       transform="matrix(0.63426027,0.7731196,-0.75965235,0.65032938,0,0)" />
    <path
       id="rect1026"
       style="fill:#ff00ff;fill-opacity:1;fill-rule:evenodd;stroke-width:0.229082"
       d="m 25.754772,239.15503 a 12.405366,11.62247 54.759031 0 0 -6.07818,2.03811 l -0.006,-0.007 -0.0744,0.0641 a 12.405366,11.62247 54.759031 0 0 -0.85783,0.68213 l 0.0289,0.0336 -82.086462,70.86441 -0.06304,-0.0749 a 12.358695,14.262677 52.557124 0 0 -5.545397,12.66176 12.358695,14.262677 52.557124 0 0 8.126119,9.41648 12.358695,14.262677 52.557124 0 0 12.985253,-2.87941 l 0.115755,0.13384 83.566472,-72.14133 -0.0765,-0.0884 a 12.405366,11.62247 54.759031 0 0 2.68614,-10.41073 12.405366,11.62247 54.759031 0 0 -8.07755,-9.50433 12.405366,11.62247 54.759031 0 0 -4.64364,-0.78859 z" />
    <path
       id="rect1028"
       style="fill:#fd00ff;fill-opacity:1;fill-rule:evenodd;stroke-width:0.229082"
       d="m 406.02605,237.4507 a 12.405366,11.62247 54.759031 0 0 -6.51744,2.36316 l -0.008,-0.009 -0.48627,0.42013 a 12.405366,11.62247 54.759031 0 0 -0.004,0.003 l -83.07658,71.7181 0.0935,0.10852 a 12.358695,14.262677 52.557124 0 0 -5.15267,12.31966 12.358695,14.262677 52.557124 0 0 8.12664,9.417 12.358695,14.262677 52.557124 0 0 13.57385,-3.35897 l -0.0553,-0.0625 82.54121,-71.25664 0.007,0.008 a 12.405366,11.62247 54.759031 0 0 0.28164,-0.25735 l 0.34675,-0.2992 -0.0119,-0.0134 a 12.405366,11.62247 54.759031 0 0 3.06337,-10.80759 12.405366,11.62247 54.759031 0 0 -8.07806,-9.50485 12.405366,11.62247 54.759031 0 0 -4.64364,-0.78806 z" />
    <path
       id="rect1030"
       style="fill:#ff00ff;fill-opacity:1;fill-rule:evenodd;stroke-width:0.229082"
       d="m 46.906069,391.92746 a 12.405366,11.62247 54.759031 0 0 -6.10763,2.0593 l -0.14211,-0.16433 -83.566995,72.14185 0.108522,0.12609 a 12.358695,14.262677 52.557124 0 0 -5.063256,12.24215 12.358695,14.262677 52.557124 0 0 8.126633,9.41648 12.358695,14.262677 52.557124 0 0 13.573856,-3.35845 l -0.0708,-0.0801 82.06941,-70.8489 0.1142,0.13694 a 12.405366,11.62247 54.759031 0 0 3.67936,-11.37812 12.405366,11.62247 54.759031 0 0 -8.07754,-9.50433 12.405366,11.62247 54.759031 0 0 -4.64365,-0.78858 z" />
    <rect
       style="fill:#00feff;fill-opacity:1;fill-rule:evenodd;stroke-width:0.187223"
       id="rect1036"
       width="16.555504"
       height="110.38993"
       x="223.19705"
       y="-177.49419"
       transform="matrix(0.65533413,0.75533912,-0.74619715,0.66572503,0,0)" />
    <path
       id="path916"
       style="fill:#ff00ff;fill-opacity:1;fill-rule:evenodd;stroke-width:0.229082"
       d="m 388.75892,64.38005 a 12.405366,11.62247 54.759031 0 0 -6.6337,2.4598 l -0.005,-0.0052 -0.27905,0.24081 a 12.405366,11.62247 54.759031 0 0 -0.0982,0.08165 l 0.002,0.0021 -83.19131,71.81732 0.0207,0.0243 a 12.358695,14.262677 52.557124 0 0 -5.12372,12.29486 12.358695,14.262677 52.557124 0 0 8.12664,9.41648 12.358695,14.262677 52.557124 0 0 13.14596,-3.0055 l 0.0258,0.03 83.0461,-71.692266 0.006,0.0067 a 12.405366,11.62247 54.759031 0 0 0.22685,-0.207221 l 0.28836,-0.249082 -0.007,-0.0083 a 12.405366,11.62247 54.759031 0 0 3.1719,-10.913544 12.405366,11.62247 54.759031 0 0 -8.07806,-9.50433 12.405366,11.62247 54.759031 0 0 -4.64364,-0.788583 z" />
    <path
       id="path960"
       style="fill:#ff00ff;fill-opacity:1;fill-rule:evenodd;stroke-width:0.229082"
       d="m 150.83569,413.31692 a 12.405366,11.62247 54.759031 0 0 -6.07818,2.03811 l -0.006,-0.007 -0.0744,0.0641 a 12.405366,11.62247 54.759031 0 0 -0.85783,0.68213 l 0.0289,0.0336 -82.086476,70.86441 -0.063,-0.0749 a 12.358695,14.262677 52.557124 0 0 -5.5454,12.66176 12.358695,14.262677 52.557124 0 0 8.12612,9.41648 12.358695,14.262677 52.557124 0 0 12.98525,-2.87941 l 0.11576,0.13384 83.566486,-72.14133 -0.0765,-0.0884 a 12.405366,11.62247 54.759031 0 0 2.68614,-10.41073 12.405366,11.62247 54.759031 0 0 -8.07755,-9.50433 12.405366,11.62247 54.759031 0 0 -4.64364,-0.78859 z" />
    <rect
       style="fill:#ffa100;fill-opacity:1;fill-rule:evenodd;stroke-width:0.187223"
       id="rect962"
       width="16.555504"
       height="110.38993"
       x="502.26996"
       y="61.774715"
       transform="matrix(0.65533413,0.75533912,-0.74619715,0.66572503,0,0)" />
  </g>
</svg>
